# AST/ASF file generated using VICON BodyLanguage
# -----------------------------------------------
:version 1.10
:name VICON
:units
  mass 1.0
  length 0.45
  angle deg
:documentation
   .ast/.asf automatically generated from VICON data using
   VICON BodyBuilder and BodyLanguage model FoxedUp or BRILLIANT.MOD
:root
   order TX TY TZ RX RY RZ
   axis XYZ
   position 0 0 0  
   orientation 0 0 0 
:bonedata
  begin
     id 1 
     name lhipjoint
     direction 0.547975 -0.797114 0.253638 
     length 2.36201 
     axis 0 0 0  XYZ
  end
  begin
     id 2 
     name lfemur
     direction 0.34202 -0.939693 0  
     length 7.69075  
     axis 0 0 20  XYZ
    dof rx ry rz
    limits (-160.0 20.0)
           (-70.0 70.0)
           (-60.0 70.0)
  end
  begin
     id 3 
     name ltibia
     direction 0.34202 -0.939693 0   
     length 7.91399   
     axis 0 0 20   XYZ
    dof rx
    limits (-10.0 170.0)
  end
  begin
     id 4 
     name lfoot
     direction 0.0705293 -0.193778 0.978507   
     length 2.13618   
     axis -90 7.62852e-016 20   XYZ
    dof rx rz
    limits (-45.0 90.0)
           (-70.0 20.0)
  end
  begin
     id 5 
     name ltoes
     direction 1.53592e-011 -4.21925e-011 1   
     length 1.07518   
     axis -90 7.62852e-016 20   XYZ
    dof rx
    limits (-90.0 20.0)
  end
  begin
     id 6 
     name rhipjoint
     direction -0.57 -0.782963 0.249136   
     length 2.4047  
     axis 0 0 0  XYZ 
  end
  begin
     id 7 
     name rfemur
     direction -0.34202 -0.939693 0   
     length 7.51486   
     axis 0 0 -20   XYZ
    dof rx ry rz
    limits (-160.0 20.0)
           (-70.0 70.0)
           (-70.0 60.0)
  end
  begin
     id 8 
     name rtibia
     direction -0.34202 -0.939693 0   
     length 8.08317   
     axis 0 0 -20   XYZ
    dof rx
    limits (-10.0 170.0)
 end
 begin
     id 9 
     name rfoot
     direction -0.104954 -0.281256 0.953876   
     length 2.30343  
     axis -90 -7.62852e-016 -20   XYZ
    dof rx rz
    limits (-45.0 90.0)
           (-20.0 70.0)
  end
  begin
     id 10 
     name rtoes
     direction -1.53556e-011 -4.21922e-011 1   
     length 1.14803   
     axis -90 -7.62852e-016 -20   XYZ
    dof rx
    limits (-90.0 20.0)
  end
  begin
     id 11 
     name lowerback
     direction -0.0152855 0.99353 -0.11254   
     length 2.05311   
     axis 0 0 0   XYZ
    dof rx ry rz
    limits (-20.0 45.0)
           (-30.0 30.0)
           (-30.0 30.0)
  end
  begin
     id 12 
     name upperback
     direction -0.00157509 0.999443 -0.033332   
     length 2.06353   
     axis 0 0 0   XYZ
    dof rx ry rz
    limits (-20.0 45.0)
           (-30.0 30.0)
           (-30.0 30.0)
  end
  begin
     id 13 
     name thorax
     direction 0.00577788 0.999804 0.0189484   
     length 2.08472   
     axis 0 0 0   XYZ
    dof rx ry rz
    limits (-20.0 45.0)
           (-30.0 30.0)
           (-30.0 30.0)
  end
  begin
     id 14 
     name lowerneck
     direction -1.09301e-005 0.994719 0.10264   
     length 1.76249   
     axis 0 0 0   XYZ
    dof rx ry rz
    limits (-20.0 45.0)
           (-30.0 30.0)
           (-30.0 30.0)
  end
  begin
     id 15 
     name upperneck
     direction 0.0495018 0.988526 -0.142706   
     length 1.77897   
     axis 0 0 0   XYZ
    dof rx ry rz
    limits (-20.0 45.0)
           (-30.0 30.0)
           (-30.0 30.0)
  end
  begin
     id 16
     name head
     direction 0.0142736 0.998114 -0.0597101  
     length 1.78934  
     axis 0 0 0   XYZ
    dof rx ry rz
    limits (-20.0 45.0)
           (-30.0 30.0)
           (-30.0 30.0)
  end
  begin
     id 17 
     name lclavicle
     direction 0.918111 0.396107 -0.0130883  
     length 3.37276  
     axis 0 0 0   XYZ
    dof ry rz
    limits (-20.0 10.0)
           (0.0 20.0)
  end
  begin
     id 18 
     name lhumerus
     direction 1 -4.48975e-011 -3.26108e-027   
     length 5.34298   
     axis 180 -30 -90   XYZ
    dof rx ry rz
    limits (-60.0 90.0)
           (-90.0 90.0)
           (-90.0 90.0)
  end
  begin
     id 19
     name lradius
     direction 1 -4.48964e-011 -8.84413e-028   
     length 3.67262   
     axis 180 -30 -90   XYZ
    dof rx
    limits (-10.0 170.0)
  end
  begin
     id 20
     name lwrist
     direction 1 -4.48991e-011 -1.24264e-027   
     length 1.83631   
     axis -2.17013e-015 90 90   XYZ
    dof ry
    limits (-180.0 0.0)
 end
  begin
     id 21 
     name lhand
     direction 1 -4.48855e-011 -2.48528e-027   
     length 0.599298   
     axis 1.58582e-015 90 90   XYZ
    dof rx rz
    limits (-90.0 90.0)
           (-45.0 45.0)
  end
  begin
     id 22 
     name lfingers
     direction 1 -4.48811e-011 -4.97056e-027   
     length 0.48317   
     axis 3.17164e-015 90 90   XYZ
    dof rx
    limits (0.0 90.0)
  end
  begin
     id 23
     name lthumb
     direction 0.707107 -6.34882e-011 0.707107   
     length 0.693738   
     axis -90 45 2.85299e-015   XYZ
    dof rx rz
    limits (-45.0 45.0)
           (-45.0 45.0)
  end
  begin
     id 24 
     name rclavicle
     direction -0.920511 0.384752 -0.0680135   
     length 3.43787  
     axis 0 0 0   XYZ 
    dof ry rz
    limits (-10.0 20.0)
           (-20.0 0.0)
  end
  begin
     id 25 
     name rhumerus
     direction -0.999976 -0.00330524 0.00603274  
     length 5.5498   
     axis 180 30 90   XYZ
    dof rx ry rz
    limits (-90.0 60.0)
           (-90.0 90.0)
           (-90.0 90.0)
  end
  begin
     id 26 
     name rradius
     direction -1 -4.48967e-011 8.62438e-027   
     length 3.69401   
     axis 180 30 90   XYZ
    dof rx
    limits (-10.0 170.0)
  end
  begin
     id 27 
     name rwrist
     direction -1 -4.4897e-011 9.54866e-027   
     length 1.84701   
     axis -7.69462e-015 -90 -90   XYZ
    dof ry
    limits (-180.0 0.0)
  end
  begin
     id 28
     name rhand
     direction -1 -4.48982e-011 1.90973e-026   
     length 0.638113   
     axis -1.21857e-014 -90 -90   XYZ
    dof rx rz
    limits (-90.0 90.0)
           (-45.0 45.0)
  end
  begin
     id 29
     name rfingers
     direction -1 -4.48936e-011 3.81946e-026   
     length 0.514463   
     axis -2.43714e-014 -90 -90   XYZ
    dof rx
    limits (0.0 90.0)
  end
  begin
     id 30
     name rthumb
     direction -0.707107 -6.34942e-011 0.707107   
     length 0.738669   
     axis -90 -45 -2.85299e-015   XYZ
    dof rx rz
    limits (-45.0 45.0)
           (-45.0 45.0)
  end
:hierarchy
  begin
    root lhipjoint rhipjoint lowerback
    lhipjoint lfemur
    lfemur ltibia
    ltibia lfoot
    lfoot ltoes
    rhipjoint rfemur
    rfemur rtibia
    rtibia rfoot
    rfoot rtoes
    lowerback upperback
    upperback thorax
    thorax lowerneck lclavicle rclavicle
    lowerneck upperneck
    upperneck head
    lclavicle lhumerus
    lhumerus lradius
    lradius lwrist
    lwrist lhand lthumb
    lhand lfingers
    rclavicle rhumerus
    rhumerus rradius
    rradius rwrist
    rwrist rhand rthumb
    rhand rfingers
  end

#!OML:ASF F:\twosubjects\two\Thursday\Session 1\Rory.ASF
:FULLY-SPECIFIED
:DEGREES
17
root 14.7549 18.6423 0.755425 1.09638 -34.4603 4.20689
lowerback 3.30332 1.41699 0.556723
upperback 0.856497 1.88481 -1.51221
thorax -0.903524 0.939412 -1.9372
lowerneck -13.2551 2.74474 -0.786232
upperneck 27.1513 4.70767 -2.65092
head 11.0054 1.67336 -0.21346
rclavicle 3.99806e-014 1.86858e-014
rhumerus -37.0776 -16.4315 -74.5822
rradius 27.9263
rwrist 24.204
rhand -20.8235 25.3884
rfingers 7.12502
rthumb 5.54477 -4.51905
lclavicle 3.99806e-014 1.86858e-014
lhumerus -38.5122 25.4172 72.7681
lradius 39.9141
lwrist -18.8748
lhand -15.5304 26.7826
lfingers 7.12502
lthumb 10.6532 56.4925
rfemur -13.9536 5.02146 14.2655
rtibia 26.2782
rfoot -16.2406 -20.2074
rtoes 6.64208
lfemur -15.7933 11.2313 -11.3109
ltibia 31.47
lfoot -8.84537 -1.02497
ltoes 11.8895
18
root 14.7833 18.641 0.785028 1.2349 -34.5305 3.88118
lowerback 3.18947 1.42571 0.846953
upperback 0.990842 1.90723 -1.48613
thorax -0.692625 0.952925 -2.06822
lowerneck -13.3257 2.91889 -0.659521
upperneck 27.1411 4.8911 -2.52669
head 11.0166 1.78474 -0.164448
rclavicle -9.0447e-014 5.36719e-015
rhumerus -36.7945 -16.8992 -74.3285
rradius 27.6861
rwrist 24.3693
rhand -20.8622 24.8923
rfingers 7.12502
rthumb 5.50741 -5.01609
lclavicle -9.0447e-014 5.36719e-015
lhumerus -38.5071 25.5249 72.6039
lradius 39.8345
lwrist -18.9487
lhand -14.6267 27.446
lfingers 7.12502
lthumb 11.5248 57.1092
rfemur -12.6712 5.11397 14.4147
rtibia 23.8511
rfoot -15.2024 -20.2001
rtoes 7.68708
lfemur -16.9403 11.4398 -10.809
ltibia 34.4048
lfoot -10.285 0.922504
ltoes 5.64549
19
root 14.817 18.6411 0.808161 1.42485 -34.7212 3.65695
lowerback 3.24596 1.61478 1.0337
upperback 0.982231 2.16556 -1.46948
thorax -0.715818 1.08196 -2.16678
lowerneck -13.2232 2.96675 -0.514691
upperneck 27.0021 4.92169 -2.5397
head 10.9481 1.81766 -0.191496
rclavicle -2.82274e-014 1.64991e-014
rhumerus -37.0828 -17.2701 -73.8714
rradius 27.9401
rwrist 24.1101
rhand -20.7615 24.9394
rfingers 7.12502
rthumb 5.60465 -4.96651
lclavicle -2.82274e-014 1.64991e-014
lhumerus -38.349 25.0506 72.7335
lradius 39.4533
lwrist -18.6302
lhand -15.2038 27.0034
lfingers 7.12502
lthumb 10.9682 56.6969
rfemur -12.3061 5.19033 14.4498
rtibia 22.9113
rfoot -14.938 -19.9598
rtoes 9.04528
lfemur -17.036 11.2451 -10.3148
ltibia 35.0344
lfoot -10.622 3.18385
ltoes 5.93817
20
root 14.8536 18.6412 0.833974 1.65871 -34.9175 3.34251
lowerback 3.42053 1.67716 1.12268
upperback 0.943353 2.25319 -1.38138
thorax -0.84944 1.12416 -2.13613
lowerneck -13.47 3.06559 -0.024911
upperneck 27.1851 5.07776 -2.98507
head 11.0965 1.8765 -0.409838
rclavicle 5.62685e-014 5.06901e-015
rhumerus -37.304 -17.5389 -73.5856
rradius 28.126
rwrist 24.0215
rhand -20.6359 25.4062
rfingers 7.12502
rthumb 5.72586 -4.4964
lclavicle 5.62685e-014 5.06901e-015
lhumerus -38.4794 25.2316 72.4566
lradius 39.2568
lwrist -18.6931
lhand -14.7474 26.6988
lfingers 7.12502
lthumb 11.4083 56.3685
rfemur -12.2106 5.93147 14.5684
rtibia 22.5698
rfoot -15.0089 -20.3812
rtoes 9.94228
lfemur -16.6846 10.9785 -9.72485
ltibia 34.5619
lfoot -10.2669 5.54885
ltoes 7.2403
21
root 14.885 18.6557 0.868712 1.56561 -35.0234 3.51615
lowerback 3.54177 1.69883 0.874554
upperback 0.859565 2.27328 -1.37759
thorax -1.01214 1.13238 -2.00006
lowerneck -13.418 3.16972 0.0950153
upperneck 27.326 5.24357 -3.1391
head 11.1514 1.94175 -0.464393
rclavicle -1.23868e-014 1.33186e-014
rhumerus -37.4612 -17.8431 -73.249
rradius 28.1128
rwrist 24.014
rhand -20.7998 25.2806
rfingers 7.12502
rthumb 5.56761 -4.62628
lclavicle -1.23868e-014 1.33186e-014
lhumerus -38.9567 25.2273 72.1968
lradius 39.2715
lwrist -18.5214
lhand -13.9211 26.8845
lfingers 7.12502
lthumb 12.2052 56.5084
rfemur -11.9474 6.9122 14.2365
rtibia 22.2098
rfoot -15.2362 -21.0956
rtoes 10.4459
lfemur -16.3769 10.8647 -9.61449
ltibia 33.9241
lfoot -9.28629 7.87781
ltoes 5.79665
